<svg xmlns="http://www.w3.org/2000/svg" width="64" height="48" viewBox="0 0 64 48" role="img" aria-label="Grenada flag">
  <rect width="64" height="48" fill="#ce1126"/>
<rect x="7" y="7" width="50" height="34" fill="#fcd116"/>
<path d="M7 7h50L32 24zM7 41h50L32 24z" fill="#007a5e"/>
<circle cx="32" cy="24" r="7" fill="#ce1126"/>
<g transform="translate(32 24)" fill="#fcd116"><path d="M0,-5 1.47,-2.02 4.76,-1.55 2.38,.77 2.94,4.05 0,2.5 -2.94,4.05 -2.38,.77 -4.76,-1.55 -1.47,-2.02Z"/></g>
<g fill="#fcd116"><circle cx="16" cy="4" r="1.6"/><circle cx="32" cy="4" r="1.6"/><circle cx="48" cy="4" r="1.6"/><circle cx="16" cy="44" r="1.6"/><circle cx="32" cy="44" r="1.6"/><circle cx="48" cy="44" r="1.6"/></g>
<ellipse cx="11" cy="30" rx="3" ry="5" fill="#fcd116"/><path d="M9 30c2 0 4 1 5 3" stroke="#007a5e" fill="none"/>
  <rect x=".5" y=".5" width="63" height="47" fill="none" stroke="rgba(16,24,32,.18)"/>
</svg>