<svg xmlns="http://www.w3.org/2000/svg" viewBox="0 0 60 40" role="img" aria-label="Soviet Union flag">
  <rect width="60" height="40" fill="#cc0000"/>
  <g fill="#ffd700" transform="translate(8 5)">
    <path d="M7 0l1.65 4.95h5.2L9.65 8l1.6 5L7 9.9 2.75 13l1.6-5L.15 4.95h5.2L7 0z"/>
    <path d="M2.6 22.7l2.1 2.1 12.8-12.8-2.1-2.1z"/>
    <path d="M3.9 21.2c3.1 2.3 7.6 2 10.4-.8 2.5-2.5 3.1-6.2 1.8-9.3l-2.4 2.4c.4 1.7-.1 3.6-1.4 4.9-1.5 1.5-3.8 1.9-5.6 1.1z"/>
    <path d="M16.8 8.4l7.3 7.3-2.4 2.4-7.3-7.3z"/>
  </g>
</svg>
