<svg xmlns="http://www.w3.org/2000/svg" width="64" height="48" viewBox="0 0 64 48" role="img" aria-label="Saint Kitts and Nevis flag">
  <rect width="64" height="48" fill="#ce1126"/>
<path d="M0 0h64L0 48z" fill="#009739"/>
<path d="M64 0v48H0z" fill="#ce1126"/>
<path d="M-7 50 57 -2M7 53 71 1" stroke="#fcd116" stroke-width="10"/>
<path d="M0 52 64 0" stroke="#000" stroke-width="10"/>
<g fill="#fff"><g transform="translate(25 29) rotate(-39)"><path d="M0,-4 1.18,-1.62 3.8,-1.24 1.9,.62 2.35,3.24 0,2 -2.35,3.24 -1.9,.62 -3.8,-1.24 -1.18,-1.62Z"/></g><g transform="translate(39 19) rotate(-39)"><path d="M0,-4 1.18,-1.62 3.8,-1.24 1.9,.62 2.35,3.24 0,2 -2.35,3.24 -1.9,.62 -3.8,-1.24 -1.18,-1.62Z"/></g></g>
  <rect x=".5" y=".5" width="63" height="47" fill="none" stroke="rgba(16,24,32,.18)"/>
</svg>