<svg xmlns="http://www.w3.org/2000/svg" width="1800" height="1200" viewBox="0 0 1800 1200">
  <defs>
    <linearGradient id="bg" x1="0" y1="0" x2="1" y2="1">
      <stop offset="0" stop-color="#250916"/>
      <stop offset=".58" stop-color="#8f2d56"/>
      <stop offset="1" stop-color="#ffd166"/>
    </linearGradient>
    <radialGradient id="glow" cx="73%" cy="22%" r="55%">
      <stop stop-color="#ffe8b6" stop-opacity=".55"/>
      <stop offset=".55" stop-color="#ffe8b6" stop-opacity=".12"/>
      <stop offset="1" stop-color="#ffe8b6" stop-opacity="0"/>
    </radialGradient>
    <filter id="grain">
      <feTurbulence type="fractalNoise" baseFrequency=".85" numOctaves="3" stitchTiles="stitch"/>
      <feColorMatrix type="saturate" values="0"/>
      <feComponentTransfer><feFuncA type="table" tableValues="0 .16"/></feComponentTransfer>
    </filter>
  </defs>
  <rect width="1800" height="1200" fill="url(#bg)"/>
  <rect width="1800" height="1200" fill="url(#glow)"/>
  <rect width="1800" height="1200" filter="url(#grain)" opacity=".42"/>
  <path d="M0 870c270-130 470-126 720-10 260 120 575 100 1080-88v428H0z" fill="rgba(0,0,0,.25)"/>
  <g transform="translate(260 210) scale(1.05)">
    <path d="M180 580h780l90-260H270z" fill="rgba(255,255,255,.13)"/><path d="M285 330h760" stroke="rgba(255,255,255,.72)" stroke-width="18"/><circle cx="365" cy="250" r="78" fill="rgba(255,255,255,.2)" stroke="rgba(255,255,255,.56)" stroke-width="10"/><circle cx="540" cy="250" r="78" fill="rgba(255,255,255,.2)" stroke="rgba(255,255,255,.56)" stroke-width="10"/><path d="M185 610c180-130 520-130 700 0" fill="none" stroke="rgba(230,57,70,.7)" stroke-width="42" stroke-linecap="round"/><path d="M930 180l95-55 30 170-118-20z" fill="rgba(255,255,255,.55)"/>
  </g>
  <g opacity=".45">
    <circle cx="1450" cy="185" r="5" fill="white"/><circle cx="1510" cy="260" r="3" fill="white"/><circle cx="1320" cy="310" r="4" fill="white"/>
    <circle cx="1120" cy="170" r="3" fill="white"/><circle cx="1560" cy="390" r="4" fill="white"/>
  </g>
  <text x="82" y="120" fill="rgba(255,255,255,.76)" font-family="Arial, Helvetica, sans-serif" font-size="30" font-weight="800" letter-spacing="4">Sep 2026</text>
  <text x="82" y="1012" fill="rgba(255,255,255,.82)" font-family="Arial, Helvetica, sans-serif" font-size="28" font-weight="800" letter-spacing="3">Venice</text>
  <text x="82" y="1088" fill="rgba(255,255,255,.95)" font-family="Arial, Helvetica, sans-serif" font-size="76" font-weight="900">Venice Film Festival</text>
</svg>