<svg xmlns="http://www.w3.org/2000/svg" width="64" height="48" viewBox="0 0 64 48" role="img" aria-label="Dominica flag">
  <rect width="64" height="48" fill="#006b3f"/>
<rect x="27" width="10" height="48" fill="#fcd116"/>
<rect y="19" width="64" height="10" fill="#fcd116"/>
<rect x="29.5" width="5" height="48" fill="#000"/>
<rect y="21.5" width="64" height="5" fill="#000"/>
<rect x="31" width="2" height="48" fill="#fff"/>
<rect y="23" width="64" height="2" fill="#fff"/>
<circle cx="32" cy="24" r="10" fill="#d41c30"/>
<circle cx="32" cy="24" r="4.5" fill="#6c3"/>
<path d="M30 22c3-5 8-1 5 3-1.5 2-4 2-6 0z" fill="#6b2e83"/>
<g fill="#fcd116">
  <circle cx="32" cy="14" r="1.2"/><circle cx="38" cy="16" r="1.2"/><circle cx="42" cy="21" r="1.2"/><circle cx="42" cy="27" r="1.2"/><circle cx="38" cy="32" r="1.2"/><circle cx="32" cy="34" r="1.2"/><circle cx="26" cy="32" r="1.2"/><circle cx="22" cy="27" r="1.2"/><circle cx="22" cy="21" r="1.2"/><circle cx="26" cy="16" r="1.2"/>
</g>
  <rect x=".5" y=".5" width="63" height="47" fill="none" stroke="rgba(16,24,32,.18)"/>
</svg>