<svg xmlns="http://www.w3.org/2000/svg" width="64" height="48" viewBox="0 0 64 48" role="img" aria-label="USA flag">
  <rect width="64" height="48" fill="#fff"/>
<g fill="#b22234">
  <rect y="0" width="64" height="3.69"/><rect y="7.38" width="64" height="3.69"/><rect y="14.77" width="64" height="3.69"/><rect y="22.15" width="64" height="3.69"/><rect y="29.54" width="64" height="3.69"/><rect y="36.92" width="64" height="3.69"/><rect y="44.31" width="64" height="3.69"/>
</g>
<rect width="28" height="25.85" fill="#3c3b6e"/>
<g fill="#fff">
  <circle cx="3" cy="3" r=".75"/><circle cx="8" cy="3" r=".75"/><circle cx="13" cy="3" r=".75"/><circle cx="18" cy="3" r=".75"/><circle cx="23" cy="3" r=".75"/>
  <circle cx="5.5" cy="6" r=".75"/><circle cx="10.5" cy="6" r=".75"/><circle cx="15.5" cy="6" r=".75"/><circle cx="20.5" cy="6" r=".75"/><circle cx="25.5" cy="6" r=".75"/>
  <circle cx="3" cy="9" r=".75"/><circle cx="8" cy="9" r=".75"/><circle cx="13" cy="9" r=".75"/><circle cx="18" cy="9" r=".75"/><circle cx="23" cy="9" r=".75"/>
  <circle cx="5.5" cy="12" r=".75"/><circle cx="10.5" cy="12" r=".75"/><circle cx="15.5" cy="12" r=".75"/><circle cx="20.5" cy="12" r=".75"/><circle cx="25.5" cy="12" r=".75"/>
  <circle cx="3" cy="15" r=".75"/><circle cx="8" cy="15" r=".75"/><circle cx="13" cy="15" r=".75"/><circle cx="18" cy="15" r=".75"/><circle cx="23" cy="15" r=".75"/>
  <circle cx="5.5" cy="18" r=".75"/><circle cx="10.5" cy="18" r=".75"/><circle cx="15.5" cy="18" r=".75"/><circle cx="20.5" cy="18" r=".75"/><circle cx="25.5" cy="18" r=".75"/>
  <circle cx="3" cy="21" r=".75"/><circle cx="8" cy="21" r=".75"/><circle cx="13" cy="21" r=".75"/><circle cx="18" cy="21" r=".75"/><circle cx="23" cy="21" r=".75"/>
</g>
  <rect x=".5" y=".5" width="63" height="47" fill="none" stroke="rgba(16,24,32,.18)"/>
</svg>