<svg xmlns="http://www.w3.org/2000/svg" width="64" height="48" viewBox="0 0 64 48" role="img" aria-label="USA flag icon">
  <defs>
    <clipPath id="r"><rect width="64" height="48" rx="6"/></clipPath>
  </defs>
  <g clip-path="url(#r)">
    <rect width="64" height="48" fill="#fff"/>
    <path fill="#b22234" d="M0 0h64v3.692H0zm0 7.385h64v3.692H0zm0 7.384h64v3.692H0zm0 7.385h64v3.692H0zm0 7.385h64v3.692H0zm0 7.384h64v3.692H0zm0 7.385h64V48H0z"/>
    <rect width="30.4" height="25.846" fill="#3c3b6e"/>
    <g fill="#fff">
      <circle cx="3.04" cy="2.58" r=".75"/><circle cx="9.12" cy="2.58" r=".75"/><circle cx="15.2" cy="2.58" r=".75"/><circle cx="21.28" cy="2.58" r=".75"/><circle cx="27.36" cy="2.58" r=".75"/>
      <circle cx="6.08" cy="5.17" r=".75"/><circle cx="12.16" cy="5.17" r=".75"/><circle cx="18.24" cy="5.17" r=".75"/><circle cx="24.32" cy="5.17" r=".75"/>
      <circle cx="3.04" cy="7.75" r=".75"/><circle cx="9.12" cy="7.75" r=".75"/><circle cx="15.2" cy="7.75" r=".75"/><circle cx="21.28" cy="7.75" r=".75"/><circle cx="27.36" cy="7.75" r=".75"/>
      <circle cx="6.08" cy="10.34" r=".75"/><circle cx="12.16" cy="10.34" r=".75"/><circle cx="18.24" cy="10.34" r=".75"/><circle cx="24.32" cy="10.34" r=".75"/>
      <circle cx="3.04" cy="12.92" r=".75"/><circle cx="9.12" cy="12.92" r=".75"/><circle cx="15.2" cy="12.92" r=".75"/><circle cx="21.28" cy="12.92" r=".75"/><circle cx="27.36" cy="12.92" r=".75"/>
      <circle cx="6.08" cy="15.51" r=".75"/><circle cx="12.16" cy="15.51" r=".75"/><circle cx="18.24" cy="15.51" r=".75"/><circle cx="24.32" cy="15.51" r=".75"/>
      <circle cx="3.04" cy="18.09" r=".75"/><circle cx="9.12" cy="18.09" r=".75"/><circle cx="15.2" cy="18.09" r=".75"/><circle cx="21.28" cy="18.09" r=".75"/><circle cx="27.36" cy="18.09" r=".75"/>
      <circle cx="6.08" cy="20.68" r=".75"/><circle cx="12.16" cy="20.68" r=".75"/><circle cx="18.24" cy="20.68" r=".75"/><circle cx="24.32" cy="20.68" r=".75"/>
      <circle cx="3.04" cy="23.26" r=".75"/><circle cx="9.12" cy="23.26" r=".75"/><circle cx="15.2" cy="23.26" r=".75"/><circle cx="21.28" cy="23.26" r=".75"/><circle cx="27.36" cy="23.26" r=".75"/>
    </g>
  </g>
  <rect x=".5" y=".5" width="63" height="47" rx="5.5" fill="none" stroke="rgba(17,25,43,.18)"/>
</svg>
