<svg xmlns="http://www.w3.org/2000/svg" viewBox="0 0 320 160">
  <rect width="320" height="160" fill="#0d1f33"/>
  <!-- sky gradient effect -->
  <rect width="320" height="160" fill="url(#sky)"/>
  <defs>
    <linearGradient id="sky" x1="0" y1="0" x2="0" y2="1">
      <stop offset="0%" stop-color="#0d2137"/>
      <stop offset="100%" stop-color="#1a3a5c"/>
    </linearGradient>
  </defs>
  <!-- background buildings -->
  <rect x="10" y="90" width="18" height="70" fill="#0d1929" opacity="0.7"/>
  <rect x="30" y="75" width="14" height="85" fill="#0d1929" opacity="0.7"/>
  <rect x="46" y="82" width="20" height="78" fill="#0d1929" opacity="0.7"/>
  <rect x="68" y="65" width="16" height="95" fill="#0d1929" opacity="0.7"/>
  <rect x="86" y="78" width="22" height="82" fill="#0d1929" opacity="0.7"/>
  <rect x="240" y="70" width="20" height="90" fill="#0d1929" opacity="0.7"/>
  <rect x="262" y="82" width="16" height="78" fill="#0d1929" opacity="0.7"/>
  <rect x="280" y="60" width="18" height="100" fill="#0d1929" opacity="0.7"/>
  <rect x="300" y="78" width="20" height="82" fill="#0d1929" opacity="0.7"/>
  <!-- foreground buildings -->
  <rect x="0" y="100" width="22" height="60" fill="#112240"/>
  <rect x="24" y="85" width="18" height="75" fill="#112240"/>
  <rect x="44" y="92" width="26" height="68" fill="#112240"/>
  <rect x="72" y="72" width="20" height="88" fill="#112240"/>
  <rect x="94" y="80" width="28" height="80" fill="#112240"/>
  <!-- tall center tower -->
  <rect x="140" y="30" width="16" height="130" fill="#0f2a45"/>
  <rect x="146" y="20" width="4" height="15" fill="#0f2a45"/>
  <!-- right side buildings -->
  <rect x="198" y="68" width="24" height="92" fill="#112240"/>
  <rect x="224" y="80" width="20" height="80" fill="#112240"/>
  <rect x="246" y="88" width="26" height="72" fill="#112240"/>
  <rect x="274" y="76" width="22" height="84" fill="#112240"/>
  <rect x="298" y="90" width="22" height="70" fill="#112240"/>
  <!-- windows lit up -->
  <rect x="28" y="90" width="3" height="3" fill="#f0c040" opacity="0.6"/>
  <rect x="28" y="96" width="3" height="3" fill="#f0c040" opacity="0.4"/>
  <rect x="33" y="90" width="3" height="3" fill="#f0c040" opacity="0.5"/>
  <rect x="77" y="80" width="3" height="3" fill="#f0c040" opacity="0.6"/>
  <rect x="77" y="88" width="3" height="3" fill="#f0c040" opacity="0.3"/>
  <rect x="83" y="84" width="3" height="3" fill="#f0c040" opacity="0.5"/>
  <rect x="144" y="40" width="3" height="3" fill="#80c8ff" opacity="0.7"/>
  <rect x="144" y="52" width="3" height="3" fill="#80c8ff" opacity="0.5"/>
  <rect x="144" y="64" width="3" height="3" fill="#80c8ff" opacity="0.6"/>
  <rect x="203" y="76" width="3" height="3" fill="#f0c040" opacity="0.5"/>
  <rect x="203" y="84" width="3" height="3" fill="#f0c040" opacity="0.6"/>
  <rect x="209" y="80" width="3" height="3" fill="#f0c040" opacity="0.3"/>
  <rect x="252" y="95" width="3" height="3" fill="#f0c040" opacity="0.5"/>
  <rect x="258" y="92" width="3" height="3" fill="#f0c040" opacity="0.4"/>
  <!-- ground -->
  <rect x="0" y="148" width="320" height="12" fill="#091525"/>
  <text x="160" y="157" text-anchor="middle" font-family="Arial,sans-serif" font-size="11" fill="white" opacity="0.5">city photo</text>
</svg>
