<svg xmlns="http://www.w3.org/2000/svg" width="1800" height="1200" viewBox="0 0 1800 1200">
  <defs>
    <linearGradient id="bg" x1="0" y1="0" x2="1" y2="1">
      <stop offset="0" stop-color="#160b2e"/>
      <stop offset=".58" stop-color="#532d8f"/>
      <stop offset="1" stop-color="#ff7bc4"/>
    </linearGradient>
    <radialGradient id="glow" cx="73%" cy="22%" r="55%">
      <stop stop-color="#ffe4ff" stop-opacity=".55"/>
      <stop offset=".55" stop-color="#ffe4ff" stop-opacity=".12"/>
      <stop offset="1" stop-color="#ffe4ff" stop-opacity="0"/>
    </radialGradient>
    <filter id="grain">
      <feTurbulence type="fractalNoise" baseFrequency=".85" numOctaves="3" stitchTiles="stitch"/>
      <feColorMatrix type="saturate" values="0"/>
      <feComponentTransfer><feFuncA type="table" tableValues="0 .16"/></feComponentTransfer>
    </filter>
  </defs>
  <rect width="1800" height="1200" fill="url(#bg)"/>
  <rect width="1800" height="1200" fill="url(#glow)"/>
  <rect width="1800" height="1200" filter="url(#grain)" opacity=".42"/>
  <path d="M0 870c270-130 470-126 720-10 260 120 575 100 1080-88v428H0z" fill="rgba(0,0,0,.25)"/>
  <g transform="translate(260 210) scale(1.05)">
    <path d="M170 560c150-170 280-190 390-70 90-140 220-180 370-70 70 50 120 85 210 85v255H170z" fill="rgba(255,255,255,.14)"/><circle cx="845" cy="250" r="112" fill="rgba(255,255,255,.22)"/><path d="M300 360c120-70 240-70 360 0s240 70 360 0" fill="none" stroke="rgba(255,255,255,.54)" stroke-width="20" stroke-linecap="round"/><path d="M300 445c120-70 240-70 360 0s240 70 360 0" fill="none" stroke="rgba(255,255,255,.32)" stroke-width="20" stroke-linecap="round"/>
  </g>
  <g opacity=".45">
    <circle cx="1450" cy="185" r="5" fill="white"/><circle cx="1510" cy="260" r="3" fill="white"/><circle cx="1320" cy="310" r="4" fill="white"/>
    <circle cx="1120" cy="170" r="3" fill="white"/><circle cx="1560" cy="390" r="4" fill="white"/>
  </g>
  <text x="82" y="120" fill="rgba(255,255,255,.76)" font-family="Arial, Helvetica, sans-serif" font-size="30" font-weight="800" letter-spacing="4">May 2026</text>
  <text x="82" y="1012" fill="rgba(255,255,255,.82)" font-family="Arial, Helvetica, sans-serif" font-size="28" font-weight="800" letter-spacing="3">Vienna</text>
  <text x="82" y="1088" fill="rgba(255,255,255,.95)" font-family="Arial, Helvetica, sans-serif" font-size="76" font-weight="900">Eurovision Song Contest</text>
</svg>