<svg xmlns="http://www.w3.org/2000/svg" width="1800" height="1200" viewBox="0 0 1800 1200">
  <defs>
    <linearGradient id="bg" x1="0" y1="0" x2="1" y2="1">
      <stop offset="0" stop-color="#081a2d"/>
      <stop offset=".58" stop-color="#154f7d"/>
      <stop offset="1" stop-color="#6fd0ff"/>
    </linearGradient>
    <radialGradient id="glow" cx="73%" cy="22%" r="55%">
      <stop stop-color="#e8f8ff" stop-opacity=".55"/>
      <stop offset=".55" stop-color="#e8f8ff" stop-opacity=".12"/>
      <stop offset="1" stop-color="#e8f8ff" stop-opacity="0"/>
    </radialGradient>
    <filter id="grain">
      <feTurbulence type="fractalNoise" baseFrequency=".85" numOctaves="3" stitchTiles="stitch"/>
      <feColorMatrix type="saturate" values="0"/>
      <feComponentTransfer><feFuncA type="table" tableValues="0 .16"/></feComponentTransfer>
    </filter>
  </defs>
  <rect width="1800" height="1200" fill="url(#bg)"/>
  <rect width="1800" height="1200" fill="url(#glow)"/>
  <rect width="1800" height="1200" filter="url(#grain)" opacity=".42"/>
  <path d="M0 870c270-130 470-126 720-10 260 120 575 100 1080-88v428H0z" fill="rgba(0,0,0,.25)"/>
  <g transform="translate(260 210) scale(1.05)">
    <ellipse cx="760" cy="510" rx="330" ry="84" fill="rgba(68,170,91,.58)"/><path d="M430 510h660M520 470v80M1000 470v80" stroke="rgba(255,255,255,.45)" stroke-width="7"/><path d="M510 335c105-62 390-62 500 0" fill="none" stroke="rgba(255,255,255,.42)" stroke-width="18"/><circle cx="760" cy="470" r="44" fill="rgba(255,255,255,.9)"/><path d="M735 470h50M760 445v50" stroke="rgba(0,0,0,.23)" stroke-width="7"/>
  </g>
  <g opacity=".45">
    <circle cx="1450" cy="185" r="5" fill="white"/><circle cx="1510" cy="260" r="3" fill="white"/><circle cx="1320" cy="310" r="4" fill="white"/>
    <circle cx="1120" cy="170" r="3" fill="white"/><circle cx="1560" cy="390" r="4" fill="white"/>
  </g>
  <text x="82" y="120" fill="rgba(255,255,255,.76)" font-family="Arial, Helvetica, sans-serif" font-size="30" font-weight="800" letter-spacing="4">Jun-Jul 2026</text>
  <text x="82" y="1012" fill="rgba(255,255,255,.82)" font-family="Arial, Helvetica, sans-serif" font-size="28" font-weight="800" letter-spacing="3">New York</text>
  <text x="82" y="1088" fill="rgba(255,255,255,.95)" font-family="Arial, Helvetica, sans-serif" font-size="76" font-weight="900">FIFA World Cup 2026</text>
</svg>