<svg xmlns="http://www.w3.org/2000/svg" width="1800" height="1200" viewBox="0 0 1800 1200">
  <defs>
    <linearGradient id="bg" x1="0" y1="0" x2="1" y2="1">
      <stop offset="0" stop-color="#250916"/>
      <stop offset=".58" stop-color="#8f2d56"/>
      <stop offset="1" stop-color="#ffd166"/>
    </linearGradient>
    <radialGradient id="glow" cx="73%" cy="22%" r="55%">
      <stop stop-color="#ffe8b6" stop-opacity=".55"/>
      <stop offset=".55" stop-color="#ffe8b6" stop-opacity=".12"/>
      <stop offset="1" stop-color="#ffe8b6" stop-opacity="0"/>
    </radialGradient>
    <filter id="grain">
      <feTurbulence type="fractalNoise" baseFrequency=".85" numOctaves="3" stitchTiles="stitch"/>
      <feColorMatrix type="saturate" values="0"/>
      <feComponentTransfer><feFuncA type="table" tableValues="0 .16"/></feComponentTransfer>
    </filter>
  </defs>
  <rect width="1800" height="1200" fill="url(#bg)"/>
  <rect width="1800" height="1200" fill="url(#glow)"/>
  <rect width="1800" height="1200" filter="url(#grain)" opacity=".42"/>
  <path d="M0 870c270-130 470-126 720-10 260 120 575 100 1080-88v428H0z" fill="rgba(0,0,0,.25)"/>
  <g transform="translate(260 210) scale(1.05)">
    <path d="M320 485c60-105 185-135 305-76 75 37 160 35 250-18l80 90c-120 78-252 80-368 25-88-42-153-28-205 55z" fill="rgba(255,255,255,.45)"/><circle cx="410" cy="390" r="48" fill="rgba(255,255,255,.56)"/><path d="M470 530l-35 105M650 520l20 120M790 500l70 105" stroke="rgba(255,255,255,.64)" stroke-width="18" stroke-linecap="round"/><path d="M130 620h980" stroke="rgba(255,255,255,.28)" stroke-width="20"/>
  </g>
  <g opacity=".45">
    <circle cx="1450" cy="185" r="5" fill="white"/><circle cx="1510" cy="260" r="3" fill="white"/><circle cx="1320" cy="310" r="4" fill="white"/>
    <circle cx="1120" cy="170" r="3" fill="white"/><circle cx="1560" cy="390" r="4" fill="white"/>
  </g>
  <text x="82" y="120" fill="rgba(255,255,255,.76)" font-family="Arial, Helvetica, sans-serif" font-size="30" font-weight="800" letter-spacing="4">Jul 2026</text>
  <text x="82" y="1012" fill="rgba(255,255,255,.82)" font-family="Arial, Helvetica, sans-serif" font-size="28" font-weight="800" letter-spacing="3">Durban</text>
  <text x="82" y="1088" fill="rgba(255,255,255,.95)" font-family="Arial, Helvetica, sans-serif" font-size="76" font-weight="900">Durban July</text>
</svg>