<svg xmlns="http://www.w3.org/2000/svg" width="1800" height="1200" viewBox="0 0 1800 1200">
  <defs>
    <linearGradient id="bg" x1="0" y1="0" x2="1" y2="1">
      <stop offset="0" stop-color="#081522"/>
      <stop offset=".58" stop-color="#154f7d"/>
      <stop offset="1" stop-color="#e63946"/>
    </linearGradient>
    <radialGradient id="glow" cx="73%" cy="22%" r="55%">
      <stop stop-color="#ffd166" stop-opacity=".55"/>
      <stop offset=".55" stop-color="#ffd166" stop-opacity=".12"/>
      <stop offset="1" stop-color="#ffd166" stop-opacity="0"/>
    </radialGradient>
    <filter id="grain">
      <feTurbulence type="fractalNoise" baseFrequency=".85" numOctaves="3" stitchTiles="stitch"/>
      <feColorMatrix type="saturate" values="0"/>
      <feComponentTransfer><feFuncA type="table" tableValues="0 .16"/></feComponentTransfer>
    </filter>
  </defs>
  <rect width="1800" height="1200" fill="url(#bg)"/>
  <rect width="1800" height="1200" fill="url(#glow)"/>
  <rect width="1800" height="1200" filter="url(#grain)" opacity=".42"/>
  <path d="M0 870c270-130 470-126 720-10 260 120 575 100 1080-88v428H0z" fill="rgba(0,0,0,.25)"/>
  <g transform="translate(260 210) scale(1.05)">
    <path d="M360 560c185-175 350-190 515-100 97 53 195 50 305-20" fill="none" stroke="rgba(255,255,255,.82)" stroke-width="54" stroke-linecap="round"/><path d="M360 560c185-175 350-190 515-100 97 53 195 50 305-20" fill="none" stroke="rgba(10,20,28,.72)" stroke-width="36" stroke-linecap="round"/><path d="M565 455h150l60 42h-286z" fill="rgba(230,57,70,.93)"/><circle cx="545" cy="508" r="27" fill="#0a0f17"/><circle cx="758" cy="508" r="27" fill="#0a0f17"/><path d="M150 190h420M130 230h310M180 270h520" stroke="rgba(255,255,255,.18)" stroke-width="12" stroke-linecap="round"/>
  </g>
  <g opacity=".45">
    <circle cx="1450" cy="185" r="5" fill="white"/><circle cx="1510" cy="260" r="3" fill="white"/><circle cx="1320" cy="310" r="4" fill="white"/>
    <circle cx="1120" cy="170" r="3" fill="white"/><circle cx="1560" cy="390" r="4" fill="white"/>
  </g>
  <text x="82" y="120" fill="rgba(255,255,255,.76)" font-family="Arial, Helvetica, sans-serif" font-size="30" font-weight="800" letter-spacing="4">Nov 2026</text>
  <text x="82" y="1012" fill="rgba(255,255,255,.82)" font-family="Arial, Helvetica, sans-serif" font-size="28" font-weight="800" letter-spacing="3">Lusail</text>
  <text x="82" y="1088" fill="rgba(255,255,255,.95)" font-family="Arial, Helvetica, sans-serif" font-size="76" font-weight="900">Qatar Grand Prix</text>
</svg>