<svg xmlns="http://www.w3.org/2000/svg" viewBox="0 0 64 44" role="img" aria-label="Europe team icon">
  <defs>
    <linearGradient id="europeTeamBg" x1="8" y1="4" x2="56" y2="40" gradientUnits="userSpaceOnUse">
      <stop offset="0" stop-color="#0f4f8f"/>
      <stop offset="1" stop-color="#082b5f"/>
    </linearGradient>
    <filter id="softShadow" x="-20%" y="-20%" width="140%" height="140%">
      <feDropShadow dx="0" dy="2" stdDeviation="1.4" flood-color="#031733" flood-opacity=".28"/>
    </filter>
  </defs>
  <rect x="2" y="2" width="60" height="40" rx="11" fill="url(#europeTeamBg)"/>
  <rect x="3.5" y="3.5" width="57" height="37" rx="9.5" fill="none" stroke="#6fa7dc" stroke-opacity=".35"/>
  <g fill="#f7d35a">
    <path d="M32 8.3l.85 1.75 1.93.28-1.4 1.36.33 1.92L32 12.7l-1.72.91.33-1.92-1.4-1.36 1.93-.28L32 8.3z"/>
    <path d="M39.3 10.2l.66 1.35 1.49.22-1.08 1.05.25 1.48-1.32-.7-1.33.7.26-1.48-1.08-1.05 1.49-.22.66-1.35z"/>
    <path d="M44.7 15.4l.66 1.35 1.49.22-1.08 1.05.25 1.48-1.32-.7-1.33.7.26-1.48-1.08-1.05 1.49-.22.66-1.35z"/>
    <path d="M46.6 22.6l.66 1.35 1.49.22-1.08 1.05.25 1.48-1.32-.7-1.33.7.26-1.48-1.08-1.05 1.49-.22.66-1.35z"/>
    <path d="M42.8 29l.66 1.35 1.49.22-1.08 1.05.25 1.48-1.32-.7-1.33.7.26-1.48-1.08-1.05 1.49-.22.66-1.35z"/>
    <path d="M32 31.2l.85 1.75 1.93.28-1.4 1.36.33 1.92L32 35.62l-1.72.91.33-1.92-1.4-1.36 1.93-.28L32 31.2z"/>
    <path d="M21.2 29l.66 1.35 1.49.22-1.08 1.05.25 1.48-1.32-.7-1.33.7.26-1.48-1.08-1.05 1.49-.22.66-1.35z"/>
    <path d="M17.4 22.6l.66 1.35 1.49.22-1.08 1.05.25 1.48-1.32-.7-1.33.7.26-1.48-1.08-1.05 1.49-.22.66-1.35z"/>
    <path d="M19.3 15.4l.66 1.35 1.49.22-1.08 1.05.25 1.48-1.32-.7-1.33.7.26-1.48-1.08-1.05 1.49-.22.66-1.35z"/>
    <path d="M24.7 10.2l.66 1.35 1.49.22-1.08 1.05.25 1.48-1.32-.7-1.33.7.26-1.48-1.08-1.05 1.49-.22.66-1.35z"/>
  </g>
  <g filter="url(#softShadow)">
    <circle cx="32" cy="22" r="7.8" fill="#ffffff"/>
    <path d="M27.7 18.6c2.7-1.5 6.4-1.2 8.8.8" fill="none" stroke="#d7e2ea" stroke-width="1.4" stroke-linecap="round"/>
    <path d="M27.2 22.3c2.9 1.2 6.9 1.1 9.6-.3" fill="none" stroke="#d7e2ea" stroke-width="1.4" stroke-linecap="round"/>
    <path d="M30.2 15.3c-1.4 3.4-1.4 9.2.1 13.4" fill="none" stroke="#d7e2ea" stroke-width="1.2" stroke-linecap="round"/>
    <path d="M33.8 15.3c1.4 3.4 1.4 9.2-.1 13.4" fill="none" stroke="#d7e2ea" stroke-width="1.2" stroke-linecap="round"/>
  </g>
</svg>
